<svg xmlns="http://www.w3.org/2000/svg" viewBox="0 0 400 400" width="400" height="400">
  <defs>
    <linearGradient id="bg" x1="0%" y1="0%" x2="100%" y2="100%">
      <stop offset="0%" stop-color="#1a1a2e"/>
      <stop offset="100%" stop-color="#16213e"/>
    </linearGradient>
    <linearGradient id="accent" x1="0%" y1="0%" x2="100%" y2="100%">
      <stop offset="0%" stop-color="#00d4aa"/>
      <stop offset="100%" stop-color="#00b4d8"/>
    </linearGradient>
  </defs>
  <rect width="400" height="400" rx="60" fill="url(#bg)"/>
  <!-- Shield -->
  <path d="M200 70 L310 125 L310 200 Q310 290 200 330 Q90 290 90 200 L90 125 Z" fill="none" stroke="url(#accent)" stroke-width="8" stroke-linejoin="round"/>
  <!-- Dollar sign -->
  <path d="M215 155 L215 165 C228 167 240 178 240 192 C240 207 228 218 215 220 L215 230 C215 233 213 235 210 235 L210 248 C220 248 230 250 238 254 L233 266 C224 262 214 260 205 260 L205 235 L195 235 L195 260 C186 260 176 262 167 266 L162 254 C170 250 180 248 190 248 L190 235 C177 233 165 222 165 207 C165 193 177 182 190 180 L190 170 C190 167 192 165 195 165 L195 152 C185 152 175 150 167 146 L172 134 C180 138 190 140 200 140 L200 165 L210 165 L210 152 C220 152 230 150 238 146 L243 158 C235 162 225 164 215 165 Z M210 180 C204 180 200 184 200 190 C200 196 204 200 210 200 L210 180 Z M195 220 L195 200 C189 200 185 204 185 210 C185 216 189 220 195 220 Z" fill="url(#accent)"/>
  <!-- Lock body -->
  <rect x="178" y="270" width="44" height="34" rx="5" fill="none" stroke="url(#accent)" stroke-width="4"/>
  <!-- Lock shackle -->
  <path d="M190 270 L190 255 Q190 240 200 240 Q210 240 210 255 L210 270" fill="none" stroke="url(#accent)" stroke-width="4" stroke-linecap="round"/>
  <!-- Keyhole -->
  <circle cx="200" cy="285" r="4" fill="url(#accent)"/>
  <rect x="197" y="285" width="6" height="8" rx="1" fill="url(#accent)"/>
  <!-- Node dots -->
  <circle cx="170" cy="340" r="5" fill="#00d4aa" opacity="0.5"/>
  <circle cx="200" cy="348" r="5" fill="#00b4d8" opacity="0.5"/>
  <circle cx="230" cy="340" r="5" fill="#00d4aa" opacity="0.5"/>
</svg>
